HIERARCHY
ROOT Hips
{
    OFFSET 0.0 0.0 0.0
    CHANNELS 6 Xposition Yposition Zposition Zrotation Xrotation Yrotation
    JOINT LeftUpLeg
    {
        OFFSET 15.78530481169803 0.0 0.0
        CHANNELS 3 Zrotation Xrotation Yrotation
        JOINT LeftLeg
        {
            OFFSET 0.0 0.0 -60.77844092584536
            CHANNELS 3 Zrotation Xrotation Yrotation
            JOINT LeftFoot
            {
                OFFSET 0.0 0.0 -48.69086280615893
                CHANNELS 3 Zrotation Xrotation Yrotation
                JOINT LeftToeBase
                {
                    OFFSET 0.0 -12.119733701923348 0.0
                    CHANNELS 3 Zrotation Xrotation Yrotation
                    End Site
                    {
                        OFFSET 0 0 0
                    }
                }
            }
        }
    }
    JOINT RightUpLeg
    {
        OFFSET -15.78530481169803 0.0 0.0
        CHANNELS 3 Zrotation Xrotation Yrotation
        JOINT RightLeg
        {
            OFFSET 0.0 0.0 -60.77844092584536
            CHANNELS 3 Zrotation Xrotation Yrotation
            JOINT RightFoot
            {
                OFFSET 0.0 0.0 -48.69086280615893
                CHANNELS 3 Zrotation Xrotation Yrotation
                JOINT RightToeBase
                {
                    OFFSET 0.0 -12.119733701923348 0.0
                    CHANNELS 3 Zrotation Xrotation Yrotation
                    End Site
                    {
                        OFFSET 0 0 0
                    }
                }
            }
        }
    }
    JOINT Spine
    {
        OFFSET 0.0 0.0 12.154138271451009
        CHANNELS 3 Zrotation Xrotation Yrotation
        JOINT Spine1
        {
            OFFSET 0.0 0.0 11.63343440844537
            CHANNELS 3 Zrotation Xrotation Yrotation
            JOINT Spine2
            {
                OFFSET 0.0 0.0 11.633434408445371
                CHANNELS 3 Zrotation Xrotation Yrotation
                JOINT Spine3
                {
                    OFFSET 0.0 0.0 11.633434408445366
                    CHANNELS 3 Zrotation Xrotation Yrotation
                    JOINT Spine4
                    {
                        OFFSET 0.0 0.0 11.633434408445373
                        CHANNELS 3 Zrotation Xrotation Yrotation
                        JOINT RightShoulder
                        {
                            OFFSET -26.566335708633652 0.0 0.0
                            CHANNELS 3 Zrotation Xrotation Yrotation
                            JOINT RightArm
                            {
                                OFFSET -32.543378487251985 0.0 0.0
                                CHANNELS 3 Zrotation Xrotation Yrotation
                                JOINT RightForeArm
                                {
                                    OFFSET -33.704342358310015 0.0 0.0
                                    CHANNELS 3 Zrotation Xrotation Yrotation
                                    JOINT RightHand
                                    {
                                        OFFSET -11.48014479188858 0.0 0.0
                                        CHANNELS 3 Zrotation Xrotation Yrotation
                                        End Site
                                        {
                                            OFFSET 0 0 0
                                        }
                                    }
                                }
                            }
                        }
                        JOINT LeftShoulder
                        {
                            OFFSET 26.566335708633652 0.0 0.0
                            CHANNELS 3 Zrotation Xrotation Yrotation
                            JOINT LeftArm
                            {
                                OFFSET 32.543378487251985 0.0 0.0
                                CHANNELS 3 Zrotation Xrotation Yrotation
                                JOINT LeftForeArm
                                {
                                    OFFSET 33.704342358310015 0.0 0.0
                                    CHANNELS 3 Zrotation Xrotation Yrotation
                                    JOINT LeftHand
                                    {
                                        OFFSET 11.48014479188858 0.0 0.0
                                        CHANNELS 3 Zrotation Xrotation Yrotation
                                        End Site
                                        {
                                            OFFSET 0 0 0
                                        }
                                    }
                                }
                            }
                        }
                        JOINT Neck
                        {
                            OFFSET 0.0 0.0 11.633434420649236
                            CHANNELS 3 Zrotation Xrotation Yrotation
                            JOINT Head
                            {
                                OFFSET 0.0 0.0 26.160153086701012
                                CHANNELS 3 Zrotation Xrotation Yrotation
                                End Site
                                {
                                    OFFSET 0 0 0
                                }
                            }
                        }
                    }
                }
            }
        }
    }
}
MOTION
Frames: 9
Frame Time: 0.03333333333333333
36.467926275730136 -0.13662582398392262 511.5061689376832 12.829952702568509 -60.19226274835347 13.118387357995296 25.231119207591142 -39.94765278033912 -7.623115011162449 -13.327166402391763 5.526969645735139 41.03449556641642 -104.76532514756143 -1.5902773407317584e-14 70.941209172987 0.0 0.0 0.0 -1.4140361827564756 -26.00290747895428 17.713467615910478 -17.977556253852935 -8.736442378238275 -33.0740015488531 108.90694770716452 -1.90833280887811e-14 -79.01742042441883 0.0 0.0 0.0 1.0798415198544984 -31.411525984107847 -0.2736166895921861 0.0 0.0 0.0 0.0 0.0 0.0 0.0 0.0 0.0 0.0 0.0 0.0 147.06358749078328 -15.20486139082307 -131.4900319052867 122.89229844621777 -2.5468846910162797e-15 -8.627908380650717e-15 3.1204172069337592e-15 42.44469800708201 -8.035617704688405e-15 0.0 0.0 0.0 -145.09107846688406 -9.25945055621858 136.28397124393658 -102.57510199313387 1.0051400149437587e-14 -7.801520344678169e-15 3.1548318510200323e-14 -68.15571925998525 3.6701904298214314e-14 1.5902773407317584e-15 2.2069531490250793e-32 1.5902773407317584e-15 -0.20752592919164448 -1.5052825582570776e-16 7.948673665136562e-16 7.951386703658792e-16 0.0 0.0
36.467926275730136 -0.13662582398392262 511.5061689376832 12.829952702568509 -60.19226274835347 13.118387357995296 25.231119207591142 -39.94765278033912 -7.623115011162449 -13.327166402391763 5.526969645735139 41.03449556641642 -104.76532514756143 -1.5902773407317584e-14 70.941209172987 0.0 0.0 0.0 -1.4140361827564756 -26.00290747895428 17.713467615910478 -17.977556253852935 -8.736442378238275 -33.0740015488531 108.90694770716452 -1.90833280887811e-14 -79.01742042441883 0.0 0.0 0.0 1.0798415198544984 -31.411525984107847 -0.2736166895921861 0.0 0.0 0.0 0.0 0.0 0.0 0.0 0.0 0.0 0.0 0.0 0.0 147.06358749078328 -15.20486139082307 -131.4900319052867 122.89229844621777 -2.5468846910162797e-15 -8.627908380650717e-15 3.1204172069337592e-15 42.44469800708201 -8.035617704688405e-15 0.0 0.0 0.0 -145.09107846688406 -9.25945055621858 136.28397124393658 -102.57510199313387 1.0051400149437587e-14 -7.801520344678169e-15 3.1548318510200323e-14 -68.15571925998525 3.6701904298214314e-14 1.5902773407317584e-15 2.2069531490250793e-32 1.5902773407317584e-15 -0.20752592919164448 -1.5052825582570776e-16 7.948673665136562e-16 7.951386703658792e-16 0.0 0.0
36.467926275730136 -0.13662582398392262 511.5061689376832 12.829952702568509 -60.19226274835347 13.118387357995296 25.231119207591142 -39.94765278033912 -7.623115011162449 -13.327166402391763 5.526969645735139 41.03449556641642 -104.76532514756143 -1.5902773407317584e-14 70.941209172987 0.0 0.0 0.0 -1.4140361827564756 -26.00290747895428 17.713467615910478 -17.977556253852935 -8.736442378238275 -33.0740015488531 108.90694770716452 -1.90833280887811e-14 -79.01742042441883 0.0 0.0 0.0 1.0798415198544984 -31.411525984107847 -0.2736166895921861 0.0 0.0 0.0 0.0 0.0 0.0 0.0 0.0 0.0 0.0 0.0 0.0 147.06358749078328 -15.20486139082307 -131.4900319052867 122.89229844621777 -2.5468846910162797e-15 -8.627908380650717e-15 3.1204172069337592e-15 42.44469800708201 -8.035617704688405e-15 0.0 0.0 0.0 -145.09107846688406 -9.25945055621858 136.28397124393658 -102.57510199313387 1.0051400149437587e-14 -7.801520344678169e-15 3.1548318510200323e-14 -68.15571925998525 3.6701904298214314e-14 1.5902773407317584e-15 2.2069531490250793e-32 1.5902773407317584e-15 -0.20752592919164448 -1.5052825582570776e-16 7.948673665136562e-16 7.951386703658792e-16 0.0 0.0
36.36775588989258 -0.1915725369472057 511.5843269348145 12.827548746167356 -60.28462752028534 13.208132487459688 25.01926207206233 -39.90312590857541 -7.939165739518536 -12.837216425278827 5.30710140840028 41.10488590540478 -104.82493928973732 3.1805546814635168e-15 71.27987459383124 0.0 0.0 0.0 -1.3446639900353072 -25.835456529536984 17.627461794459343 -18.263702342781347 -8.889708168790236 -32.81749750077978 109.06006850114665 -6.3611093629270335e-15 -79.0748355677488 0.0 0.0 0.0 1.0031478090095691 -31.34656719528478 -0.37620828484887997 1.5902773407317584e-15 1.1034765745125397e-32 7.951386703658792e-16 1.5902773407317584e-15 1.1034765745125397e-32 7.951386703658792e-16 1.5902773407317584e-15 1.1034765745125397e-32 7.951386703658792e-16 1.5902773407317584e-15 1.1034765745125397e-32 7.951386703658792e-16 147.67809148591851 -15.414560513872859 -131.4239965209192 125.65417703343269 1.1893440868368708e-14 1.861825969999553e-14 1.7395095882078588e-14 42.44084934381139 -2.7225642350748167e-14 0.0 0.0 -6.3611093629270335e-15 -145.15144845291806 -9.278155034020829 136.3423205716813 -102.66920588101858 7.573904698842838e-15 -1.0897516053229292e-14 4.687277652771168e-14 -80.38605130639823 5.2091927522792166e-14 1.5902773407317584e-15 0.0 0.0 -0.11140631486301524 1.4637060307778718e-14 -1.5760478865229333e-15 7.951386703658792e-16 0.0 0.0
36.260349547863 -0.2438534166198224 511.67290649414065 12.783300514359345 -60.38191569075062 13.24643269295376 24.94146178620944 -39.89400622643766 -8.183543821788753 -12.547987571837622 5.160360426895751 41.19585893812269 -104.85188204811217 0.0 71.51496627069868 0.0 0.0 0.0 -1.2656777661471166 -25.661889612019205 17.514769747964774 -18.528056526306123 -9.04296267432074 -32.706748749802514 109.23491884140621 -6.3611093629270335e-15 -79.16071755408522 -8.827812596100317e-32 3.1805546814635168e-15 3.1805546814635168e-15 0.9392764623774963 -31.27558427556735 -0.4697808213270108 1.5902773407317584e-15 0.0 0.0 1.5902773407317584e-15 0.0 0.0 1.5902773407317584e-15 0.0 0.0 1.5902773407317584e-15 0.0 0.0 145.06488374753502 -12.765063977115924 -132.16674109793829 119.88591246954128 -8.761603828561102e-15 1.514071077674932e-14 3.943058571234567e-15 40.90753586331564 -1.4706238582985173e-15 -3.1805546814635168e-15 0.0 0.0 -145.0802394558858 -9.369220016474566 136.40925002296686 -102.47018134650958 -1.076625578006169e-15 -1.1500198162608647e-14 5.299111715450397e-14 -86.55537554523431 4.989735578912547e-14 0.0 0.0 0.0 -0.01061517334695366 -1.3765911829206977e-14 7.938634704204222e-16 7.951386703658792e-16 0.0 0.0
36.1606138586998 -0.2861659674905241 511.7575063705445 12.742597444054748 -60.45478876343959 13.245051003200464 24.873319603495293 -39.8776265457566 -8.366666247586636 -12.291905640089471 5.033444656953684 41.2551699086196 -104.90770628488181 6.3611093629270335e-15 71.7319567272989 0.0 0.0 0.0 -1.1631990036493123 -25.51154921922698 17.452574311918266 -19.11833001598805 -9.34725609026476 -32.7175167308183 109.49291499868937 3.1805546814635168e-15 -79.53994839545479 0.0 0.0 0.0 0.9010101212204862 -31.22090643533055 -0.5150328625938677 7.951386703658794e-16 0.0 0.0 7.951386703658794e-16 0.0 0.0 7.951386703658794e-16 0.0 0.0 7.951386703658794e-16 0.0 0.0 143.90808152304828 -11.30286828301598 -132.51133364288432 116.67386955180939 8.729808863683853e-15 2.2199355661902513e-14 8.992553966519034e-15 41.641347358644836 -1.0225191670089909e-14 0.0 0.0 0.0 -145.00436607573246 -9.387071044621004 136.4028362644429 -102.32280521077662 1.3056681703186586e-14 -1.4212831348339306e-14 179.99999999999918 -89.12166346346933 179.99999999999918 3.1805546814635168e-15 4.4139062980501586e-32 1.5902773407317584e-15 0.048387304449994104 1.1355908878160602e-14 7.903436074974058e-16 0.0 0.0 0.0
36.065900194644925 -0.315684864576906 511.84045486450196 12.721758423293089 -60.49987777508957 13.222756781045648 24.837618304284682 -39.861420487761734 -8.472565787893647 -12.084228717417155 4.932183283413245 41.29584840246404 -104.99931413945018 -9.54166404439055e-15 71.92054775150002 -6.361109362927033e-15 -1.5902773407317584e-15 3.1805546814635164e-15 -1.0290714965894143 -25.376302837043603 17.43903024139151 -19.582899294438892 -9.597277610970442 -32.78924121069413 109.58496344322663 3.1805546814635168e-15 -79.80757182467572 6.3611093629270335e-15 1.7655625192200634e-31 3.1805546814635168e-15 0.8902155978522418 -31.185963542325702 -0.5038696258444451 1.5902773407317584e-15 -1.1034765745125397e-32 -7.951386703658792e-16 1.5902773407317584e-15 -1.1034765745125397e-32 -7.951386703658792e-16 1.5902773407317584e-15 -1.1034765745125397e-32 -7.951386703658792e-16 1.5902773407317584e-15 -1.1034765745125397e-32 -7.951386703658792e-16 143.31732546874218 -10.340096724202258 -132.7117285543672 114.61525865495672 1.0706799327816524e-14 6.871629898527681e-15 0.0 42.717475393210066 0.0 0.0 0.0 0.0 -144.96561764592448 -9.462328658220775 136.33257987568112 -102.14966714793313 8.8205531223579e-15 7.973710513448944e-16 -179.9999999999999 -81.4016976932817 -179.9999999999999 0.0 0.0 0.0 0.044541537654191415 -6.907766676969006e-15 2.6850369055008083e-18 0.0 0.0 0.0
35.977425241470335 -0.3347833472304046 511.9195352554322 12.702497484207274 -60.520216140214224 13.171631366435701 24.822955806729997 -39.84629806586505 -8.520411778498465 -11.893099323245224 4.842777390262169 41.322701068247255 -105.11925500075178 -6.3611093629270335e-15 72.09825299326513 0.0 0.0 0.0 -0.8929171009222102 -25.270088967705746 17.455020987742603 -19.968826404798083 -9.810781439642248 -32.87604843760416 109.6168807912377 1.5902773407317584e-14 -80.02874873548956 0.0 0.0 0.0 0.8980262309052441 -31.16963496567796 -0.45373591573130717 -7.951386703658792e-16 0.0 0.0 -7.951386703658792e-16 0.0 0.0 -7.951386703658792e-16 0.0 0.0 -7.951386703658792e-16 0.0 0.0 142.99567497253042 -9.607826556037399 -132.84680764317744 113.26540367739747 -5.312556288305506e-15 -3.4986365931178976e-15 -2.043942433343675e-15 43.785618792299545 8.213616376121848e-16 0.0 0.0 0.0 -144.97153271493343 -9.519697838232643 136.25185336969344 -101.99998691619363 5.758744330813467e-15 -1.3104347474499748e-14 179.99999999999997 -75.99110630601403 180.0 7.951386703658791e-16 -3.180554681463516e-15 2.3854160110976368e-15 0.0032723623327412287 1.1181183415960151e-15 -1.590309271204481e-15 0.0 2.4848083448933725e-17 0.0
35.89491609334946 -0.34825945626944305 511.99383258819586 12.683598789451828 -60.5244657377482 13.111692072196142 24.82408921211999 -39.83777676420776 -8.536140214724774 -11.753446892684366 4.7773425864417245 41.33434328612698 -105.22071999638962 1.5902773407317584e-14 72.225506866158 0.0 -1.5902773407317588e-15 0.0 -0.7670826605038866 -25.18720452939299 17.477783309897074 -20.280729910703688 -9.990130132936965 -32.95312109736306 109.62493466634666 1.5902773407317584e-14 -80.20868765332266 0.0 0.0 0.0 0.9133191147830934 -31.163344026777064 -0.3923034923039413 0.0 0.0 7.951386703658794e-16 0.0 0.0 7.951386703658794e-16 0.0 0.0 7.951386703658794e-16 0.0 0.0 7.951386703658794e-16 142.8254546461516 -9.007028556566725 -132.94546673166047 112.36352542618074 8.825196064260512e-15 -1.7445168619410609e-15 9.32407968457027e-15 44.797946014010414 -3.8429128008563884e-15 0.0 0.0 0.0 -144.96806662410785 -9.596803012673659 136.18901866876516 -101.86762599542197 -6.8180470469499326e-15 1.6937825150596405e-15 -180.0 -72.15328264391479 -180.0 -1.1034765745125397e-32 -3.1805546814635176e-15 -3.975693351829397e-16 -0.057454818163703326 -8.42389790326833e-15 7.909151296959416e-16 0.0 0.0 0.0
